# xmcd CD database file
#
# Track frame offsets:
#	150
#	12234
#	23501
#	34639
#	45575
#	60155
#	73366
#	85215
#	98297
#	113297
#	127564
#	141401
#	154847
#	168368
#	181709
#	194966
#	208581
#	215578
#	226065
#	233913
#	244175
#	253904
#	264218
#	278574
#	295190
#
# Disc length: 4057 seconds
#
# Revision: 0
# Processed by: cddbd v1.5.2PL0 Copyright (c) Steve Scherf et al.
# Submitted via: CDex 1.51
#
DISCID=4b0fd719
DTITLE=Gus Viseur - Paris Jazz Accordéon
DYEAR=2015
DGENRE=Jazz
TTITLE0=Flambée montalbanaise
TTITLE1=Swing valse
TTITLE2=Jeannette
TTITLE3=Soir de dispute
TTITLE4=Wind and strings
TTITLE5=L'imprévu
TTITLE6=Gracieusette
TTITLE7=Josette
TTITLE8=Matelote
TTITLE9=L'incomprise
TTITLE10=Douce joie
TTITLE11=Anomalie
TTITLE12=Fausse monnaie
TTITLE13=Fiasco
TTITLE14=Victoria midi
TTITLE15=Terry
TTITLE16=Paris je t'aime
TTITLE17=Ménilmontant
TTITLE18=Quel temps faiit-il à Paris
TTITLE19=Revoir Paris
TTITLE20=Le bal du p'tit jardin
TTITLE21=Ballade rabouine
TTITLE22=Nuages
TTITLE23=46Ème avenue
TTITLE24=Flambée montalbanaise (alt trk)
EXTD=YEAR: 2015
EXTT0=
EXTT1=
EXTT2=
EXTT3=
EXTT4=
EXTT5=
EXTT6=
EXTT7=
EXTT8=
EXTT9=
EXTT10=
EXTT11=
EXTT12=
EXTT13=
EXTT14=
EXTT15=
EXTT16=
EXTT17=
EXTT18=
EXTT19=
EXTT20=
EXTT21=
EXTT22=
EXTT23=
EXTT24=
PLAYORDER=
